<?xml version="1.0" encoding="UTF-8"?>
<svg xmlns="http://www.w3.org/2000/svg" xmlns:xlink="http://www.w3.org/1999/xlink"   viewBox="0 0 192 192" version="1.1">
<defs>
<clipPath >
  <path d="M 6.851562 0 L 109.890625 0 L 109.890625 101 L 6.851562 101 Z M 6.851562 0 "/>
</clipPath>
</defs>
<g>
<path style=" stroke:none;fill-rule:nonzero;fill-opacity:1;" fill="#000000" d="M 99.101562 25.289062 L 58.972656 2.105469 C 58.609375 1.902344 58.167969 1.902344 57.804688 2.105469 L 17.675781 25.289062 C 17.3125 25.492188 17.113281 25.894531 17.113281 26.296875 L 17.113281 72.625 C 17.113281 73.027344 17.355469 73.429688 17.675781 73.632812 L 57.804688 96.816406 C 57.964844 96.9375 58.167969 96.976562 58.367188 96.976562 C 58.570312 96.976562 58.769531 96.9375 58.929688 96.816406 L 99.058594 73.632812 C 99.421875 73.429688 99.621094 73.027344 99.621094 72.625 L 99.621094 26.296875 C 99.660156 25.894531 99.417969 25.492188 99.097656 25.289062 Z M 58.371094 4.480469 L 96.164062 26.296875 L 58.371094 48.152344 L 20.578125 26.296875 Z M 19.410156 28.308594 L 31.523438 35.3125 L 57.203125 50.125 L 57.203125 93.753906 L 19.410156 71.9375 Z M 97.332031 71.980469 L 59.539062 93.796875 L 59.539062 50.167969 L 85.21875 35.355469 L 97.332031 28.351562 Z M 97.332031 71.980469 "/>
<g clip-path="url(#clip1)" clip-rule="nonzero">
<path style="fill:none;stroke-width:5;stroke-linecap:butt;stroke-linejoin:miter;stroke:rgb(0%,0%,0%);stroke-opacity:1;stroke-miterlimit:4;" fill="#000000" d="M 229.19656 67.897152 L 129.495668 10.297152 C 128.59309 9.792485 127.49641 9.792485 126.593832 10.297152 L 26.89294 67.897152 C 25.990362 68.401819 25.4954 69.401448 25.4954 70.401078 L 25.4954 185.504025 C 25.4954 186.503654 26.097119 187.503284 26.89294 188.007951 L 126.593832 245.60795 C 126.991743 245.90881 127.49641 246.005861 127.991372 246.005861 C 128.496039 246.005861 128.991001 245.90881 129.388912 245.60795 L 229.089804 188.007951 C 229.992382 187.503284 230.487344 186.503654 230.487344 185.504025 L 230.487344 70.401078 C 230.584395 69.401448 229.982677 68.401819 229.186855 67.897152 Z M 128.001077 16.197877 L 221.898296 70.401078 L 128.001077 124.70133 L 34.103858 70.401078 Z M 31.202022 75.399224 L 61.297657 92.800538 L 125.09924 129.602425 L 125.09924 237.999121 L 31.202022 183.795921 Z M 224.800132 183.902677 L 130.902914 238.105878 L 130.902914 129.709181 L 194.704497 92.907295 L 224.800132 75.505981 Z M 224.800132 183.902677 " transform="matrix(0.402493,0,0,0.402493,6.851562,-2.039062)"/>
</g>
<path style=" stroke:none;fill-rule:nonzero;fill-opacity:1;" fill="#000000" d="M 130.597656 91.269531 C 120.902344 93.125 113.21875 100.65625 111.210938 110.386719 C 110.167969 115.292969 110.863281 120.777344 113.027344 125.566406 C 115.074219 130.046875 119.285156 134.449219 123.648438 136.6875 L 124.84375 137.304688 L 123.839844 137.574219 C 116.695312 139.503906 110.59375 142.519531 105.339844 146.6875 C 103.292969 148.308594 100.050781 151.554688 98.386719 153.640625 C 93.058594 160.359375 89.464844 169.398438 89.464844 176.234375 C 89.464844 178.472656 89.503906 178.589844 90.082031 179.515625 C 90.816406 180.675781 92.128906 181.71875 93.171875 182.027344 C 93.710938 182.183594 107.269531 182.21875 135.421875 182.183594 L 176.9375 182.105469 L 177.863281 181.566406 C 179.988281 180.292969 180.761719 178.59375 180.566406 175.503906 C 180.335938 171.371094 178.828125 166.042969 176.589844 161.484375 C 170.679688 149.589844 160.023438 141.171875 146.15625 137.539062 L 145.152344 137.269531 L 146.890625 136.304688 C 152.179688 133.332031 156.082031 128.65625 158.011719 122.863281 C 160.984375 114.019531 158.707031 104.558594 152.0625 97.992188 C 149.859375 95.789062 148.085938 94.554688 145.1875 93.164062 C 141.867188 91.582031 139.78125 91.117188 135.570312 91.039062 C 133.136719 91 131.632812 91.039062 130.589844 91.269531 Z M 140.136719 97.292969 C 146.78125 99.222656 151.722656 104.554688 153.230469 111.3125 C 153.734375 113.628906 153.65625 117.335938 153 119.769531 C 150.875 127.996094 143.421875 133.789062 134.925781 133.789062 C 133.070312 133.789062 129.945312 133.210938 128.167969 132.476562 C 122.683594 130.351562 118.472656 125.523438 116.96875 119.769531 C 116.351562 117.335938 116.273438 113.667969 116.777344 111.3125 C 118.476562 103.820312 124.386719 98.144531 131.957031 96.792969 C 132.496094 96.675781 134.160156 96.636719 135.625 96.675781 C 137.828125 96.714844 138.675781 96.832031 140.144531 97.292969 Z M 139.828125 142.207031 C 149.214844 143.367188 157.285156 147.152344 163.851562 153.484375 C 168.410156 157.886719 171.5 162.832031 173.429688 168.699219 C 174.125 170.863281 175.050781 175.109375 175.050781 176.230469 C 175.050781 176.617188 174.238281 176.617188 135.039062 176.617188 C 95.839844 176.617188 95.027344 176.617188 95.027344 176.230469 C 95.027344 175.070312 95.914062 170.863281 96.648438 168.699219 C 99.46875 160.007812 105.453125 152.671875 113.796875 147.652344 C 118.238281 144.988281 124.339844 142.941406 129.941406 142.246094 C 131.871094 142.015625 137.820312 141.976562 139.828125 142.207031 Z M 139.828125 142.207031 "/>
<path style="fill:none;stroke-width:5;stroke-linecap:butt;stroke-linejoin:miter;stroke:rgb(0%,0%,0%);stroke-opacity:1;stroke-miterlimit:4;" fill="#000000" d="M 62.744596 185.26313 L 101.025846 185.26313 L 101.025846 157.289172 L 95.156054 157.289172 L 106.890429 143.304797 L 118.624804 157.289172 L 112.755013 157.289172 L 112.755013 199.247505 L 62.734179 199.247505 L 62.734179 185.26313 Z M 62.744596 185.26313 " transform="matrix(0.000000000000000046,0.75,-0.75,0.000000000000000046,196.474691,60.441553)"/>
</g>
</svg>
